<svg width="40" height="40" viewBox="0 0 40 40" fill="none" xmlns="http://www.w3.org/2000/svg">
    <rect width="40" height="40" rx="8" fill="#2563eb"/>
    <path d="M20 8C13.373 8 8 13.373 8 20C8 26.627 13.373 32 20 32C26.627 32 32 26.627 32 20C32 13.373 26.627 8 20 8ZM20 28C15.589 28 12 24.411 12 20C12 15.589 15.589 12 20 12C24.411 12 28 15.589 28 20C28 24.411 24.411 28 20 28Z" fill="white"/>
    <path d="M24 19H21V16C21 15.448 20.552 15 20 15C19.448 15 19 15.448 19 16V19H16C15.448 19 15 19.448 15 20C15 20.552 15.448 21 16 21H19V24C19 24.552 19.448 25 20 25C20.552 25 21 24.552 21 24V21H24C24.552 21 25 20.552 25 20C25 19.448 24.552 19 24 19Z" fill="white"/>
</svg> 